<?xml version="1.0" encoding="utf-8" ?>
<svg xmlns="http://www.w3.org/2000/svg" xmlns:xlink="http://www.w3.org/1999/xlink" width="18.7483" height="16.2496" viewBox="0 0 18.7483 16.2496">
	<path d="M17.9918 6.9938L17.9855 6.99107L1.30273 0.071537C1.16022 0.0118891 1.01209 -0.0104578 0.858323 0.00449628C0.704558 0.0194504 0.563503 0.0699223 0.435156 0.155912C0.299542 0.244774 0.193159 0.360505 0.116006 0.503106C0.0388532 0.645707 0.000184601 0.798074 2.23517e-07 0.960209L2.23517e-07 5.3856C7.68155e-05 5.61068 0.0718978 5.8099 0.215463 5.98325C0.359029 6.1566 0.541374 6.26429 0.7625 6.3063L9.86133 7.98872C9.89821 7.99572 9.92862 8.01367 9.95256 8.04257C9.9765 8.07148 9.98847 8.1047 9.98847 8.14224C9.98847 8.17978 9.9765 8.213 9.95256 8.24191C9.92862 8.27081 9.89821 8.28876 9.86133 8.29576L0.762891 9.97818C0.541832 10.0201 0.359489 10.1276 0.215863 10.3008C0.0722366 10.474 0.000282352 10.6731 2.23517e-07 10.8981L2.23517e-07 15.3243C-0.000105177 15.4791 0.0365078 15.6247 0.109839 15.761C0.18317 15.8974 0.284448 16.0082 0.413672 16.0934C0.490195 16.1443 0.572426 16.183 0.660362 16.2096C0.748299 16.2362 0.838205 16.2496 0.930078 16.2497C0.993949 16.2496 1.05718 16.2432 1.11978 16.2305C1.18238 16.2178 1.2431 16.1991 1.30195 16.1743L17.9844 9.29419L17.9918 9.29068C18.2213 9.19205 18.4047 9.03843 18.5421 8.82983C18.6795 8.62123 18.7482 8.39203 18.7482 8.14224C18.7482 7.89245 18.6795 7.66325 18.5421 7.45465C18.4047 7.24604 18.2213 7.09243 17.9918 6.9938Z" fill-rule="nonzero" transform="matrix(1 0 0 1 -2.38419e-07 -2.82526e-05)" fill="rgb(255, 255, 255)"/>
</svg>
